<svg version="1.1" id="Icons" xmlns="http://www.w3.org/2000/svg" xmlns:xlink="http://www.w3.org/1999/xlink" viewBox="0 0 32.00 32.00" xml:space="preserve" width="256px" height="256px" fill="#00ff00" stroke="#00ff00" transform="rotate(0)matrix(1, 0, 0, 1, 0, 0)"><g id="SVGRepo_bgCarrier" stroke-width="0"></g><g id="SVGRepo_tracerCarrier" stroke-linecap="round" stroke-linejoin="round" stroke="#CCCCCC" stroke-width="0.704"></g><g id="SVGRepo_iconCarrier"> <style type="text/css"> .st0{fill:none;stroke:#00ff00;stroke-width:1.888;stroke-linecap:round;stroke-linejoin:round;stroke-miterlimit:10;} </style> <path class="st0" d="M3,25l2.6-4.2c1.5-2.3,4-3.8,6.8-3.8H19v0c0,2.2-1.8,4-4,4h-2"></path> <path class="st0" d="M16,21h7l1.2-1.6c1.1-1.5,2.9-2.4,4.8-2.4h0l-2.7,4.8c-1.4,2.6-4.2,4.2-7.1,4.2h0c-4.7,0-9.3,1.4-13.2,4l0,0"></path> <path class="st0" d="M18,10L18,10L18,10c0-3.9,3.1-7,7-7h0v0C25,6.9,21.9,10,18,10z"></path> <path class="st0" d="M18,13L18,13c-3.9,0-7-3.1-7-7v0h0C14.9,6,18,9.1,18,13L18,13z"></path> <line class="st0" x1="18" y1="2" x2="18" y2="17"></line> </g></svg>